Coordinates
version=1
nRows=26
nColumns=24
inDegrees=yes

Units are S.I. units (second, meters, Newtons, ...)
Angles are in degrees.

endheader
time	pelvis_tilt	pelvis_list	pelvis_rotation	pelvis_tx	pelvis_ty	pelvis_tz	hip_flexion_r	hip_adduction_r	hip_rotation_r	knee_angle_r	ankle_angle_r	subtalar_angle_r	mtp_angle_r	hip_flexion_l	hip_adduction_l	hip_rotation_l	knee_angle_l	ankle_angle_l	subtalar_angle_l	mtp_angle_l	lumbar_extension	lumbar_bending	lumbar_rotation
      1.20450000	     -1.02530319	     -1.84310713	     -7.37677191	      0.08080425	      0.95163342	      0.35582342	    -18.28636414	      3.13557077	     -2.14678570	    -10.15999034	     14.88701696	      6.97286317	     10.46056436	     29.04955738	     -2.93603334	     -8.67771101	     -2.24677628	      7.14249440	     -2.50795598	      0.00586260	     -0.19398320	      5.44153540	     12.11452111
      1.20866667	     -1.09735908	     -1.67773975	     -7.45857612	      0.08699612	      0.95081365	      0.35563301	    -18.42172168	      2.87535703	     -2.17082180	    -10.42377017	     14.68804142	      6.90939924	     10.52703111	     29.19236872	     -2.78770440	     -8.59799396	     -2.78767418	      6.95481221	     -2.84081295	      0.02398924	     -0.05758060	      5.23122853	     12.17280659
      1.21283333	     -1.20254893	     -1.53870499	     -7.52639867	      0.09319060	      0.94998807	      0.35540004	    -18.51656719	      2.65027914	     -2.18846144	    -10.69573688	     14.49329285	      6.91102360	     10.71055510	     29.36440094	     -2.65143104	     -8.37656155	     -3.34253413	      6.60602323	     -3.47451181	      0.07795797	      0.12665548	      5.07732988	     12.29502657
      1.21700000	     -1.29912531	     -1.36726815	     -7.58676995	      0.09945172	      0.94920887	      0.35515905	    -18.60932594	      2.39128054	     -2.22326948	    -10.98344723	     14.24191952	      6.86512422	     10.89099070	     29.54122143	     -2.48352487	     -8.22421509	     -3.95461321	      6.26198498	     -3.97583570	      0.13314600	      0.31394577	      4.87229465	     12.37060719
      1.22116667	     -1.38449673	     -1.16921223	     -7.65265133	      0.10575727	      0.94848344	      0.35490738	    -18.69085703	      2.09738752	     -2.26281324	    -11.31326946	     13.96695838	      6.76118036	     10.99921099	     29.71787871	     -2.29291439	     -8.13614546	     -4.61930674	      5.94920833	     -4.37889091	      0.16624048	      0.47116969	      4.63018029	     12.42883471
      1.22533333	     -1.51096632	     -1.01051337	     -7.69434324	      0.11205795	      0.94774558	      0.35462128	    -18.73100912	      1.86124659	     -2.27724479	    -11.63580874	     13.69214888	      6.71933373	     11.24657223	     29.92833758	     -2.12052367	     -7.87844702	     -5.27244211	      5.44821754	     -5.12051199	      0.24262352	      0.70982408	      4.44770520	     12.53886291
      1.22950000	     -1.61148827	     -0.82068968	     -7.73787075	      0.11838712	      0.94707980	      0.35430448	    -18.76170552	      1.58078889	     -2.32849026	    -12.02440749	     13.38475046	      6.63714124	     11.61184327	     30.11392769	     -1.91294361	     -7.66007830	     -5.94576940	      4.96077893	     -5.80523921	      0.35922825	      0.89734173	      4.22607957	     12.60915006
      1.23366667	     -1.70394048	     -0.59026004	     -7.76265392	      0.12480668	      0.94645236	      0.35395102	    -18.78692686	      1.25189666	     -2.46383057	    -12.42295719	     12.97478748	      6.59387692	     15.70444564	     30.30539810	     -1.66001558	     -7.53394494	     -6.65468934	      4.43972151	     -6.35970307	      1.70948252	      1.09123179	      3.95475799	     12.64217012
      1.23783333	     -1.83625526	     -0.39687820	     -7.78286965	      0.13121711	      0.94584531	      0.35362347	    -18.78067242	      0.98957774	     -2.43618005	    -12.80618607	     12.56395146	      6.38792862	     15.74307085	     30.54912242	     -1.44713185	     -7.37567223	     -7.40073820	      3.90332300	     -6.91225155	      1.70829573	      1.34010468	      3.72502513	     12.73221104
      1.24200000	     -1.95708475	     -0.18710260	     -7.79466575	      0.13763012	      0.94529161	      0.35323768	    -18.74012220	      0.70014561	     -2.46727893	    -13.27548457	     12.16668636	      6.21052480	     15.84689156	     30.77224293	     -1.20212140	     -7.17591568	     -8.13077507	      3.32826545	     -7.56098740	      1.72386753	      1.55844293	      3.48731871	     12.79433822
      1.24616667	     -2.08830146	      0.03101545	     -7.79401839	      0.14407965	      0.94477408	      0.35283367	    -18.67607632	      0.40823999	     -2.49061074	    -13.75858916	     11.71698150	      6.04367106	     15.99988596	     31.01086795	     -0.94376002	     -6.99376937	     -8.87585666	      2.73457429	     -8.16735422	      1.75109405	      1.79970660	      3.23774212	     12.85143131
      1.25033333	     -2.21490385	      0.25993895	     -7.78076897	      0.15055382	      0.94430847	      0.35240540	    -18.59250788	      0.10672231	     -2.52368901	    -14.28348003	     11.23459924	      5.86372118	     16.21610834	     31.24462820	     -0.66638844	     -6.81273410	     -9.62364706	      2.13671274	     -8.75466186	      1.79139194	      2.04445327	      2.97144325	     12.90095801
      1.25450000	     -2.32684246	      0.52871120	     -7.74426785	      0.15709414	      0.94390887	      0.35192227	    -18.50562567	     -0.23681379	     -2.59423077	    -14.83786445	     10.77671247	      5.66844499	     16.76837054	     31.44748010	     -0.32775472	     -6.60612075	    -10.34165115	      1.51305709	     -9.40698179	      1.90122308	      2.28358016	      2.64814464	     12.94834321
      1.25866667	     -2.47509827	      0.73684691	     -7.72414213	      0.16355025	      0.94352307	      0.35145867	    -18.34047409	     -0.51215261	     -2.58126394	    -15.45292779	     10.15567071	      5.47129113	     17.12694774	     31.72179869	     -0.07297319	     -6.46356339	    -11.14177184	      0.96225344	     -9.87942901	      1.96439298	      2.53268771	      2.43044117	     12.99348149
      1.26283333	     -2.59995568	      0.98316795	     -7.67989771	      0.17007439	      0.94321911	      0.35095464	    -18.18092826	     -0.82684508	     -2.60655483	    -16.09844996	      9.54090463	      5.25786925	     17.54417942	     31.95272026	      0.24044312	     -6.30371390	    -11.90590122	      0.40569143	    -10.38723536	      2.03127504	      2.77748453	      2.14235634	     13.03182737
      1.26700000	     -2.69392106	      1.27012520	     -7.61893841	      0.17666596	      0.94298509	      0.35040969	    -18.02818419	     -1.19674759	     -2.71062103	    -16.77459649	      8.83628969	      5.09139071	     22.03967569	     32.15205085	      0.59973578	     -6.21411064	    -12.67504619	     -0.10311940	    -10.77734937	      2.73002300	      3.01183212	      1.79446809	     13.04421698
      1.27116667	     -2.80448860	      1.51358704	     -7.55072018	      0.18321829	      0.94280316	      0.34988524	    -17.84388290	     -1.49636592	     -2.68987598	    -17.47848489	      8.11425839	      4.81047529	     22.07661754	     32.37500771	      0.91491840	     -6.10535030	    -13.47271763	     -0.56136490	    -11.13690197	      2.72334999	      3.24710053	      1.50592676	     13.08533454
      1.27533333	     -2.91341785	      1.77759485	     -7.48289631	      0.18974853	      0.94267141	      0.34929868	    -17.59784230	     -1.83151798	     -2.70522182	    -18.29180926	      7.38982083	      4.56682034	     22.20347708	     32.57024285	      1.26543072	     -5.94186317	    -14.21672432	     -0.99160847	    -11.56661406	      2.71849497	      3.46925572	      1.20583182	     13.11847056
      1.27950000	     -2.97949224	      2.06235585	     -7.40118830	      0.19634354	      0.94263799	      0.34872864	    -17.38657618	     -2.18719204	     -2.73099879	    -19.11710420	      6.60991473	      4.31118272	     22.26358901	     32.72517391	      1.62925495	     -5.89510035	    -14.98623844	     -1.30759339	    -11.75031371	      2.71469813	      3.66621734	      0.84853659	     13.12810603
      1.28366667	     -3.09344348	      2.30958321	     -7.30385137	      0.20285468	      0.94258594	      0.34808120	    -17.07866804	     -2.49769878	     -2.73688973	    -20.01101439	      5.74531812	      4.14508447	     22.45229762	     32.92707472	      1.97563730	     -5.74236593	    -15.74637557	     -1.69798263	    -12.16276071	      2.70577939	      3.89123358	      0.57980026	     13.16139025
      1.28783333	     -3.13744132	      2.61188279	     -7.20750911	      0.20943281	      0.94266776	      0.34744778	    -16.81219110	     -2.87839095	     -2.76954311	    -20.96084063	      4.90723489	      3.89150413	     22.55562323	     33.03437669	      2.37094066	     -5.69555835	    -16.47964191	     -1.89544951	    -12.31603470	      2.70109406	      4.04949686	      0.20914329	     13.16315615
      1.29200000	     -3.20230635	      2.89201905	     -7.10445119	      0.21596210	      0.94277008	      0.34679429	    -16.48333800	     -3.23359624	     -2.78717656	    -21.96880978	      3.96613436	      3.68458584	     22.68087651	     33.15475729	      2.74703341	     -5.63164458	    -17.19931165	     -2.09903451	    -12.50980763	      2.69335338	      4.23229470	     -0.12766776	     13.17108298
      1.29616667	     -3.26656371	      3.17282032	     -6.99256713	      0.22243474	      0.94289505	      0.34604580	    -16.09398633	     -3.61399952	     -2.88208535	    -23.06497023	      2.93913097	      3.60693706	     27.66697830	     33.25403261	      3.14411397	     -5.51689279	    -17.87315905	     -2.31993182	    -12.81659951	      2.39621135	      4.40379807	     -0.44042946	     13.17791649
      1.30033333	     -3.29424662	      3.46125026	     -6.87639886	      0.22892726	      0.94312572	      0.34536612	    -15.73716258	     -3.98011095	     -2.88215636	    -24.17221798	      1.94136647	      3.34407175	     27.67004729	     33.30586618	      3.53336239	     -5.50030849	    -18.54838735	     -2.39145656	    -12.89309389	      2.39455280	      4.53375603	     -0.79782611	     13.17649065
      1.30450000	     -3.34171994	      3.71357771	     -6.75836398	      0.23533067	      0.94336648	      0.34464108	    -15.30368097	     -4.31528578	     -2.88654140	    -25.36207545	      0.84660881	      3.19923675	     27.70836723	     33.35790301	      3.89313865	     -5.44724995	    -19.18475009	     -2.48411813	    -12.99946954	      2.38531426	      4.67690840	     -1.08053589	     13.18250265
      1.30866667	     -3.37757231	      3.98399742	     -6.62804894	      0.24171830	      0.94363644	      0.34389623	    -14.85108973	     -4.67290845	     -2.90931548	    -26.59816105	     -0.24137517	      3.08263836	     27.78146777	     33.39033187	      4.27283114	     -5.43529994	    -19.81053420	     -2.50598607	    -13.09001133	      2.36805329	      4.80450429	     -1.40337628	     13.17471686
